<?xml version="1.0" standalone="no"?>
<!DOCTYPE svg PUBLIC "-//W3C//DTD SVG 20010904//EN"
 "http://www.w3.org/TR/2001/REC-SVG-20010904/DTD/svg10.dtd">
<svg version="1.0" xmlns="http://www.w3.org/2000/svg"
 width="493.000000pt" height="520.000000pt" viewBox="0 0 493.000000 520.000000"
 preserveAspectRatio="xMidYMid meet">

<g transform="translate(0.000000,520.000000) scale(0.100000,-0.100000)"
fill="#000000" stroke="none">
<path d="M1029 5179 c-262 -39 -502 -162 -684 -350 -109 -113 -161 -187 -227
-324 -61 -129 -96 -264 -109 -425 -7 -81 -9 -639 -7 -1580 4 -1431 4 -1456 25
-1545 106 -462 436 -802 888 -917 l90 -23 1455 0 c1350 0 1460 1 1527 17 467
114 793 445 910 923 15 64 17 196 21 1580 2 1084 0 1536 -8 1603 -33 271 -150
512 -340 702 -158 159 -351 266 -580 323 -84 21 -96 21 -1495 23 -775 1 -1435
-2 -1466 -7z m2902 -84 c228 -39 442 -156 606 -328 128 -135 220 -299 271
-484 l27 -98 3 -1540 c2 -1112 0 -1562 -8 -1620 -70 -486 -470 -873 -965 -934
-125 -15 -2685 -15 -2810 0 -260 32 -493 151 -677 348 -128 136 -211 288 -266
490 l-27 96 -3 1510 c-2 1104 0 1536 8 1605 58 473 407 851 875 950 86 18 157
19 1486 19 1185 1 1409 -1 1480 -14z"/>
<path d="M1694 4754 c-399 -67 -723 -326 -832 -664 -60 -187 -56 -382 11 -547
78 -192 265 -365 532 -493 87 -41 242 -103 313 -125 l22 -6 0 206 0 206 -65
29 c-109 49 -202 108 -270 171 -113 106 -150 198 -143 359 3 88 7 104 41 173
62 126 184 217 352 263 90 25 336 30 461 11 117 -19 249 -56 347 -98 39 -16
73 -26 77 -22 9 11 110 295 110 310 0 18 -257 145 -368 182 -177 59 -402 77
-588 45z"/>
<path d="M2230 3639 c-106 -9 -316 -36 -357 -46 l-23 -5 0 -1039 0 -1039 -57
6 c-195 19 -392 73 -555 151 -54 26 -99 45 -101 42 -7 -8 -108 -331 -105 -334
11 -10 118 -59 175 -80 148 -57 448 -115 589 -115 l54 0 0 -359 0 -359 43 -6
c207 -29 778 -39 992 -17 340 35 599 120 774 255 163 125 279 326 312 536 14
89 7 241 -15 325 -40 151 -148 310 -281 412 -81 63 -242 144 -332 169 -35 10
-63 20 -63 24 0 3 35 20 78 38 235 96 428 305 478 518 24 105 16 286 -19 382
-53 150 -138 255 -289 356 -149 98 -339 160 -570 185 -112 13 -574 12 -728 0z
m686 -314 c315 -54 475 -200 500 -455 19 -204 -90 -390 -286 -489 -45 -22 -87
-41 -94 -41 -6 0 -19 33 -28 73 -62 259 -249 447 -610 617 l-118 55 0 117 0
116 68 7 c37 4 72 8 77 10 33 11 412 3 491 -10z m-566 -722 c110 -74 202 -194
226 -295 l6 -28 -151 0 -151 0 0 180 c0 99 3 180 8 180 4 0 32 -17 62 -37z
m466 -634 c326 -33 552 -156 653 -356 32 -64 51 -158 51 -258 0 -168 -45 -282
-154 -390 -105 -105 -247 -170 -446 -206 -83 -15 -538 -20 -602 -6 l-38 8 0
228 0 229 35 6 c61 12 187 57 260 94 139 69 251 159 331 265 49 64 124 209
124 237 0 24 -98 40 -282 47 l-146 6 -27 -53 c-48 -94 -168 -201 -268 -239
l-27 -11 0 205 0 205 213 0 c118 0 263 -5 323 -11z"/>
</g>
</svg>
